<?xml version="1.0" encoding="utf-8"?>
<svg xmlns="http://www.w3.org/2000/svg" xmlns:xlink="http://www.w3.org/1999/xlink" style="margin: auto; background: linear-gradient(200deg, #ff3762,#008cff); display: block; z-index: 1; position: relative; shape-rendering: auto;" width="500" height="350" preserveAspectRatio="xMidYMid" viewBox="0 0 500 350">
<g transform="translate(250,175) scale(1,1) translate(-250,-175)"><path id="path0" d="M 87.04397996871135 70.57667652533367
c 0 32.33506652886008 -7.911771597487041 9.287731875310875 -17.199503472797918 9.287731875310875
S 52.644973023115526 102.91174305419375 52.644973023115526 70.57667652533367
s 7.911771597487041 -9.287731875310875 17.199503472797918 -9.287731875310875
S 87.04397996871135 38.241609996473585 87.04397996871135 70.57667652533367
z" fill="none" stroke="none"></path>
<circle cx="0" cy="0" r="2.0004624931684853" fill="lime">
  <animateMotion begin="-0.8438778204585096s" dur="25s" repeatCount="indefinite">
    <mpath xlink:href="#path0"></mpath>
  </animateMotion>
</circle><path id="path1" d="M 184.9338422335361 331.0320241933913
c 0 35.95407211724805 -8.797272964858564 10.327233480486143 -19.124506445344707 10.327233480486143
S 146.68482934284668 366.98609631063937 146.68482934284668 331.0320241933913
s 8.797272964858564 -10.327233480486143 19.124506445344707 -10.327233480486143
S 184.9338422335361 295.0779520761432 184.9338422335361 331.0320241933913
z" fill="none" stroke="none"></path>
<circle cx="0" cy="0" r="2.0004624931684853" fill="blue">
  <animateMotion begin="-6.633303208783909s" dur="25s" repeatCount="indefinite">
    <mpath xlink:href="#path1"></mpath>
  </animateMotion>
</circle><path id="path2" d="M 425.41764601547067 180.4207258892882
c 0 25.46271513792856 -6.230238810344221 7.313758603447565 -13.543997413791786 7.313758603447565
S 398.3296511878871 205.88344102721678 398.3296511878871 180.4207258892882
s 6.230238810344221 -7.313758603447565 13.543997413791786 -7.313758603447565
S 425.41764601547067 154.95801075135964 425.41764601547067 180.4207258892882
z" fill="none" stroke="none"></path>
<circle cx="0" cy="0" r="1.772006333211683" fill="skyblue">
  <animateMotion begin="-7.8323907808289945s" dur="25s" repeatCount="indefinite">
    <mpath xlink:href="#path2"></mpath>
  </animateMotion>
</circle><path id="path3" d="M 102.41287154972885 172.00865023696778
c 0 28.26544607426225 -6.916013401149272 8.118798340479582 -15.034811741628856 8.118798340479582
S 72.34324806647113 200.27409631123004 72.34324806647113 172.00865023696778
s 6.916013401149272 -8.118798340479582 15.034811741628856 -8.118798340479582
S 102.41287154972885 143.74320416270552 102.41287154972885 172.00865023696778
z" fill="none" stroke="none"></path>
<circle cx="0" cy="0" r="2.0004624931684853" fill="#9df871">
  <animateMotion begin="-3.4072768753849902s" dur="25s" repeatCount="indefinite">
    <mpath xlink:href="#path3"></mpath>
  </animateMotion>
</circle><path id="path4" d="M 82.60386462223323 191.5054253401072
c 0 36.57699976190573 -8.949691431104593 10.506159506079305 -19.455850937183897 10.506159506079305
S 43.69216274786544 228.08242510201293 43.69216274786544 191.5054253401072
s 8.949691431104593 -10.506159506079305 19.455850937183897 -10.506159506079305
S 82.60386462223323 154.92842557820146 82.60386462223323 191.5054253401072
z" fill="none" stroke="none"></path>
<circle cx="0" cy="0" r="1.772006333211683" fill="#ff0">
  <animateMotion begin="-0.7158583457432521s" dur="25s" repeatCount="indefinite">
    <mpath xlink:href="#path4"></mpath>
  </animateMotion>
</circle><path id="path5" d="M 241.00844101768675 279.35027079620653
c 0 34.09135152636235 -8.341500905386532 9.792196715018974 -18.133697620405506 9.792196715018974
S 204.74104577687572 313.4416223225689 204.74104577687572 279.35027079620653
s 8.341500905386532 -9.792196715018974 18.133697620405506 -9.792196715018974
S 241.00844101768675 245.25891926984417 241.00844101768675 279.35027079620653
z" fill="none" stroke="none"></path>
<circle cx="0" cy="0" r="1.772006333211683" fill="orangered">
  <animateMotion begin="-6.468536974281376s" dur="25s" repeatCount="indefinite">
    <mpath xlink:href="#path5"></mpath>
  </animateMotion>
</circle><path id="path6" d="M 155.9094028172258 156.38570076840105
c 0 25.380816922035788 -6.210199885178969 7.29023464781879 -13.500434532997758 7.29023464781879
S 128.9085337512303 181.76651769043684 128.9085337512303 156.38570076840105
s 6.210199885178969 -7.29023464781879 13.500434532997758 -7.29023464781879
S 155.9094028172258 131.00488384636526 155.9094028172258 156.38570076840105
z" fill="none" stroke="none"></path>
<circle cx="0" cy="0" r="2.0004624931684853" fill="#9df871">
  <animateMotion begin="-4.733755902002712s" dur="25s" repeatCount="indefinite">
    <mpath xlink:href="#path6"></mpath>
  </animateMotion>
</circle><path id="path7" d="M 444.4615559899221 344.22319737806265
c 0 20.576169586582118 -5.034594686078602 5.910176370614012 -10.944771056692614 5.910176370614012
S 422.57201387653686 364.7993669646448 422.57201387653686 344.22319737806265
s 5.034594686078602 -5.910176370614012 10.944771056692614 -5.910176370614012
S 444.4615559899221 323.6470277914805 444.4615559899221 344.22319737806265
z" fill="none" stroke="none"></path>
<circle cx="0" cy="0" r="2.0004624931684853" fill="blue">
  <animateMotion begin="-3.015307709364312s" dur="25s" repeatCount="indefinite">
    <mpath xlink:href="#path7"></mpath>
  </animateMotion>
</circle><path id="path8" d="M 150.7101878366686 328.2714433510463
c 0 23.07072289349192 -5.644964112237384 6.626697001322147 -12.271661113559531 6.626697001322147
S 126.16686560954955 351.3421662445382 126.16686560954955 328.2714433510463
s 5.644964112237384 -6.626697001322147 12.271661113559531 -6.626697001322147
S 150.7101878366686 305.2007204575544 150.7101878366686 328.2714433510463
z" fill="none" stroke="none"></path>
<circle cx="0" cy="0" r="2.0004624931684853" fill="#9df871">
  <animateMotion begin="-3.5456441908324865s" dur="25s" repeatCount="indefinite">
    <mpath xlink:href="#path8"></mpath>
  </animateMotion>
</circle><path id="path9" d="M 330.70395805112446 71.149276209392
c 0 33.75648712559697 -8.259565998816278 9.69601225947998 -17.95557825829626 9.69601225947998
S 294.7928015345319 104.90576333498896 294.7928015345319 71.149276209392
s 8.259565998816278 -9.69601225947998 17.95557825829626 -9.69601225947998
S 330.70395805112446 37.39278908379503 330.70395805112446 71.149276209392
z" fill="none" stroke="none"></path>
<circle cx="0" cy="0" r="1.772006333211683" fill="deeppink">
  <animateMotion begin="-5.950704864081802s" dur="25s" repeatCount="indefinite">
    <mpath xlink:href="#path9"></mpath>
  </animateMotion>
</circle><path id="path10" d="M 419.32259732670025 283.6728248575686
c 0 24.574982693999736 -6.013027680446743 7.058771624872264 -13.071799305319008 7.058771624872264
S 393.1789987160622 308.24780755156837 393.1789987160622 283.6728248575686
s 6.013027680446743 -7.058771624872264 13.071799305319008 -7.058771624872264
S 419.32259732670025 259.0978421635689 419.32259732670025 283.6728248575686
z" fill="none" stroke="none"></path>
<circle cx="0" cy="0" r="1.772006333211683" fill="#e0ff77">
  <animateMotion begin="-7.035196665787349s" dur="25s" repeatCount="indefinite">
    <mpath xlink:href="#path10"></mpath>
  </animateMotion>
</circle><path id="path11" d="M 30.34908410596457 285.0775139994055
c 0 29.985032254267242 -7.336763211150495 8.612722030481017 -15.94948524163151 8.612722030481017
S -1.5498863772984492 315.06254625367274 -1.5498863772984492 285.0775139994055
s 7.336763211150495 -8.612722030481017 15.94948524163151 -8.612722030481017
S 30.34908410596457 255.09248174513823 30.34908410596457 285.0775139994055
z" fill="none" stroke="none"></path>
<circle cx="0" cy="0" r="1.772006333211683" fill="#00ff00">
  <animateMotion begin="-8.1529140803197s" dur="25s" repeatCount="indefinite">
    <mpath xlink:href="#path11"></mpath>
  </animateMotion>
</circle><path id="path12" d="M 152.53393423507148 332.36836365624356
c 0 36.12649709032424 -8.839462054015506 10.376759802539944 -19.21622185655545 10.376759802539944
S 114.10149052196059 368.4948607465678 114.10149052196059 332.36836365624356
s 8.839462054015506 -10.376759802539944 19.21622185655545 -10.376759802539944
S 152.53393423507148 296.24186656591934 152.53393423507148 332.36836365624356
z" fill="none" stroke="none"></path>
<circle cx="0" cy="0" r="2.0004624931684853" fill="#ff0">
  <animateMotion begin="-5.877267272254347s" dur="25s" repeatCount="indefinite">
    <mpath xlink:href="#path12"></mpath>
  </animateMotion>
</circle><path id="path13" d="M 343.9908628417303 219.82281436988242
c 0 25.348260039110773 -6.20223383935689 7.280883202723307 -13.483117042080197 7.280883202723307
S 317.0246287575699 245.1710744089932 317.0246287575699 219.82281436988242
s 6.20223383935689 -7.280883202723307 13.483117042080197 -7.280883202723307
S 343.9908628417303 194.47455433077164 343.9908628417303 219.82281436988242
z" fill="none" stroke="none"></path>
<circle cx="0" cy="0" r="2.0004624931684853" fill="cyan">
  <animateMotion begin="-6.97038379888772s" dur="25s" repeatCount="indefinite">
    <mpath xlink:href="#path13"></mpath>
  </animateMotion>
</circle><path id="path14" d="M 360.5294316606802 93.71880515163771
c 0 23.025024582009333 -5.633782610491645 6.613570890577149 -12.247353501068794 6.613570890577149
S 336.0347246585426 116.74382973364705 336.0347246585426 93.71880515163771
s 5.633782610491645 -6.613570890577149 12.247353501068794 -6.613570890577149
S 360.5294316606802 70.69378056962837 360.5294316606802 93.71880515163771
z" fill="none" stroke="none"></path>
<circle cx="0" cy="0" r="1.772006333211683" fill="skyblue">
  <animateMotion begin="-4.042672617420358s" dur="25s" repeatCount="indefinite">
    <mpath xlink:href="#path14"></mpath>
  </animateMotion>
</circle><path id="path15" d="M 199.68665289596808 42.67196029014666
c 0 29.98806931844009 -7.337506322597043 8.613594378700878 -15.95110070129792 8.613594378700878
S 167.78445149337225 72.66002960858674 167.78445149337225 42.67196029014666
s 7.337506322597043 -8.613594378700878 15.95110070129792 -8.613594378700878
S 199.68665289596808 12.683890971706568 199.68665289596808 42.67196029014666
z" fill="none" stroke="none"></path>
<circle cx="0" cy="0" r="2.0004624931684853" fill="#9df871">
  <animateMotion begin="-7.879064723837235s" dur="25s" repeatCount="indefinite">
    <mpath xlink:href="#path15"></mpath>
  </animateMotion>
</circle><path id="path16" d="M 422.0915655956296 178.6124313583966
c 0 31.059607198287118 -7.599691122985145 8.921376535678215 -16.52106765866336 8.921376535678215
S 389.0494302783029 209.67203855668373 389.0494302783029 178.6124313583966
s 7.599691122985145 -8.921376535678215 16.52106765866336 -8.921376535678215
S 422.0915655956296 147.55282416010948 422.0915655956296 178.6124313583966
z" fill="none" stroke="none"></path>
<circle cx="0" cy="0" r="1.772006333211683" fill="#e0ff77">
  <animateMotion begin="-8.228566052899826s" dur="25s" repeatCount="indefinite">
    <mpath xlink:href="#path16"></mpath>
  </animateMotion>
</circle><path id="path17" d="M 446.7110081645348 312.33022661060653
c 0 28.498073587931476 -6.972932899174722 8.185616881639891 -15.158549780814614 8.185616881639891
S 416.3939086029056 340.828300198538 416.3939086029056 312.33022661060653
s 6.972932899174722 -8.185616881639891 15.158549780814614 -8.185616881639891
S 446.7110081645348 283.8321530226751 446.7110081645348 312.33022661060653
z" fill="none" stroke="none"></path>
<circle cx="0" cy="0" r="2.9537343274998014" fill="deeppink">
  <animateMotion begin="-0.7334496592680151s" dur="25s" repeatCount="indefinite">
    <mpath xlink:href="#path17"></mpath>
  </animateMotion>
</circle><path id="path18" d="M 326.9985548134054 189.34269527648837
c 0 24.710419231269086 -6.046166407650945 7.0976736089815455 -13.143840016632492 7.0976736089815455
S 300.7108747801404 214.05311450775747 300.7108747801404 189.34269527648837
s 6.046166407650945 -7.0976736089815455 13.143840016632492 -7.0976736089815455
S 326.9985548134054 164.63227604521927 326.9985548134054 189.34269527648837
z" fill="none" stroke="none"></path>
<circle cx="0" cy="0" r="3.3350206360007775" fill="#ff0">
  <animateMotion begin="-1.8641090590272924s" dur="25s" repeatCount="indefinite">
    <mpath xlink:href="#path18"></mpath>
  </animateMotion>
</circle><path id="path19" d="M 406.38851729402876 298.1453968138107
c 0 28.15969465329426 -6.890138053465615 8.088422932329202 -14.978560985794818 8.088422932329202
S 376.4313953224391 326.30509146710494 376.4313953224391 298.1453968138107
s 6.890138053465615 -8.088422932329202 14.978560985794818 -8.088422932329202
S 406.38851729402876 269.98570216051644 406.38851729402876 298.1453968138107
z" fill="none" stroke="none"></path>
<circle cx="0" cy="0" r="4.223205806511028" fill="lime">
  <animateMotion begin="-7.218275876372184s" dur="25s" repeatCount="indefinite">
    <mpath xlink:href="#path19"></mpath>
  </animateMotion>
</circle><path id="path20" d="M 414.6947436462061 69.16426860083085
c 0 36.58377782241461 -8.951349892718467 10.508106395799942 -19.45945628851841 10.508106395799942
S 375.77583106916927 105.74804642324546 375.77583106916927 69.16426860083085
s 8.951349892718467 -10.508106395799942 19.45945628851841 -10.508106395799942
S 414.6947436462061 32.58049077841624 414.6947436462061 69.16426860083085
z" fill="none" stroke="none"></path>
<circle cx="0" cy="0" r="4.305429130208268" fill="#ff0">
  <animateMotion begin="-3.9297385493877757s" dur="25s" repeatCount="indefinite">
    <mpath xlink:href="#path20"></mpath>
  </animateMotion>
</circle><path id="path21" d="M 261.9114540589181 205.40151570953782
c 0 20.25491241118631 -4.9559892069923945 5.817900373425855 -10.773889580418249 5.817900373425855
S 240.36367489808157 225.65642812072412 240.36367489808157 205.40151570953782
s 4.9559892069923945 -5.817900373425855 10.773889580418249 -5.817900373425855
S 261.9114540589181 185.14660329835152 261.9114540589181 205.40151570953782
z" fill="none" stroke="none"></path>
<circle cx="0" cy="0" r="4.737893839109605" fill="salmon">
  <animateMotion begin="-1.2575414333771007s" dur="25s" repeatCount="indefinite">
    <mpath xlink:href="#path21"></mpath>
  </animateMotion>
</circle><path id="path22" d="M 444.6292984565733 289.2126277516379
c 0 25.632644446716025 -6.271817258239027 7.362568085758859 -13.634385343997886 7.362568085758859
S 417.36052776857747 314.84527219835394 417.36052776857747 289.2126277516379
s 6.271817258239027 -7.362568085758859 13.634385343997886 -7.362568085758859
S 444.6292984565733 263.5799833049219 444.6292984565733 289.2126277516379
z" fill="none" stroke="none"></path>
<circle cx="0" cy="0" r="2.870512356673729" fill="#ff0">
  <animateMotion begin="-4.8674684287822885s" dur="25s" repeatCount="indefinite">
    <mpath xlink:href="#path22"></mpath>
  </animateMotion>
</circle><path id="path23" d="M 423.5153367973375 47.06999773081159
c 0 30.233606589669506 -7.397584591089346 8.684121041713581 -16.081705632802926 8.684121041713581
S 391.35192553173164 77.3036043204811 391.35192553173164 47.06999773081159
s 7.397584591089346 -8.684121041713581 16.081705632802926 -8.684121041713581
S 423.5153367973375 16.836391141142087 423.5153367973375 47.06999773081159
z" fill="none" stroke="none"></path>
<circle cx="0" cy="0" r="3.47224270829377" fill="#51cacc">
  <animateMotion begin="-9.312245991636471s" dur="25s" repeatCount="indefinite">
    <mpath xlink:href="#path23"></mpath>
  </animateMotion>
</circle><path id="path24" d="M 79.55696385084974 289.5288959534387
c 0 30.420083558927423 -7.443211934631178 8.7376835754366 -16.180895510067778 8.7376835754366
S 47.19517283071419 319.9489795123661 47.19517283071419 289.5288959534387
s 7.443211934631178 -8.7376835754366 16.180895510067778 -8.7376835754366
S 79.55696385084974 259.10881239451123 79.55696385084974 289.5288959534387
z" fill="none" stroke="none"></path>
<circle cx="0" cy="0" r="4.477937646726862" fill="#de9dd6">
  <animateMotion begin="-7.636227645856359s" dur="25s" repeatCount="indefinite">
    <mpath xlink:href="#path24"></mpath>
  </animateMotion>
</circle><path id="path25" d="M 241.84831468030438 114.61348650865841
c 0 32.77546632545123 -8.0195289945253 9.414229689225353 -17.433758683750654 9.414229689225353
S 206.98079731280308 147.38895283410963 206.98079731280308 114.61348650865841
s 8.0195289945253 -9.414229689225353 17.433758683750654 -9.414229689225353
S 241.84831468030438 81.83802018320719 241.84831468030438 114.61348650865841
z" fill="none" stroke="none"></path>
<circle cx="0" cy="0" r="2.52684250029009" fill="#ff0">
  <animateMotion begin="-9.116352538330691s" dur="25s" repeatCount="indefinite">
    <mpath xlink:href="#path25"></mpath>
  </animateMotion>
</circle><path id="path26" d="M 228.2847328414273 143.15500614431627
c 0 27.937995530729733 -6.835892523476423 8.024743397124498 -14.860635920600922 8.024743397124498
S 198.5634610002255 171.093001675046 198.5634610002255 143.15500614431627
s 6.835892523476423 -8.024743397124498 14.860635920600922 -8.024743397124498
S 228.2847328414273 115.21701061358654 228.2847328414273 143.15500614431627
z" fill="none" stroke="none"></path>
<circle cx="0" cy="0" r="2.634482413327937" fill="pink">
  <animateMotion begin="-8.83238780929268s" dur="25s" repeatCount="indefinite">
    <mpath xlink:href="#path26"></mpath>
  </animateMotion>
</circle><path id="path27" d="M 464.7339621439838 154.6116131412756
c 0 27.6781882456308 -6.772322655845834 7.9501179003407625 -14.722440556186596 7.9501179003407625
S 435.2890810316106 182.2898013869064 435.2890810316106 154.6116131412756
s 6.772322655845834 -7.9501179003407625 14.722440556186596 -7.9501179003407625
S 464.7339621439838 126.9334248956448 464.7339621439838 154.6116131412756
z" fill="none" stroke="none"></path>
<circle cx="0" cy="0" r="3.727321404988839" fill="#de9dd6">
  <animateMotion begin="-6.116536909884611s" dur="25s" repeatCount="indefinite">
    <mpath xlink:href="#path27"></mpath>
  </animateMotion>
</circle><path id="path28" d="M 142.641515478846 101.4599108199414
c 0 20.552030442521517 -5.028688299765903 5.903242786681712 -10.931931086447616 5.903242786681712
S 120.77765330595078 122.01194126246291 120.77765330595078 101.4599108199414
s 5.028688299765903 -5.903242786681712 10.931931086447616 -5.903242786681712
S 142.641515478846 80.90788037741989 142.641515478846 101.4599108199414
z" fill="none" stroke="none"></path>
<circle cx="0" cy="0" r="3.0982340971822597" fill="blue">
  <animateMotion begin="-9.376046637043993s" dur="25s" repeatCount="indefinite">
    <mpath xlink:href="#path28"></mpath>
  </animateMotion>
</circle><path id="path29" d="M 191.1232320773409 287.2562901005472
c 0 19.35041349403712 -4.7346756421580185 5.558097492968109 -10.292773135126128 5.558097492968109
S 170.53768580708862 306.6067035945843 170.53768580708862 287.2562901005472
s 4.7346756421580185 -5.558097492968109 10.292773135126128 -5.558097492968109
S 191.1232320773409 267.90587660651005 191.1232320773409 287.2562901005472
z" fill="none" stroke="none"></path>
<circle cx="0" cy="0" r="2.617571628226831" fill="#9df871">
  <animateMotion begin="-8.199016296022952s" dur="25s" repeatCount="indefinite">
    <mpath xlink:href="#path29"></mpath>
  </animateMotion>
</circle></g>
</svg>