<?xml version="1.0" standalone="no"?>
<!DOCTYPE svg PUBLIC "-//W3C//DTD SVG 20010904//EN"
 "http://www.w3.org/TR/2001/REC-SVG-20010904/DTD/svg10.dtd">
<svg version="1.0" xmlns="http://www.w3.org/2000/svg"
 width="512.000000pt" height="512.000000pt" viewBox="0 0 512.000000 512.000000"
 preserveAspectRatio="xMidYMid meet">
<metadata>
Created by potrace 1.14, written by Peter Selinger 2001-2017
</metadata>
<g transform="translate(0.000000,512.000000) scale(0.100000,-0.100000)"
fill="#000000" stroke="none">
<path d="M980 4728 c-85 -18 -230 -80 -230 -98 0 -5 -4 -9 -10 -7 -12 2 -109
-74 -110 -87 0 -5 -10 -18 -22 -30 -22 -20 -84 -135 -90 -166 -2 -8 -9 -21
-15 -28 -7 -7 -13 -20 -13 -28 0 -8 -4 -13 -8 -10 -4 2 -9 -5 -9 -16 -1 -12
-6 -24 -10 -27 -4 -3 -9 -21 -11 -40 -1 -19 -6 -39 -11 -45 -4 -6 -9 -87 -9
-181 -1 -93 -2 -172 -3 -175 -1 -3 -1 -8 0 -12 2 -13 3 -212 1 -223 -1 -5 -2
-23 -1 -40 3 -115 3 -277 -1 -280 -2 -2 -1 -30 2 -62 3 -32 3 -118 0 -191 -3
-74 -3 -135 -1 -137 3 -4 4 -151 0 -170 -1 -5 -1 -13 0 -17 2 -14 2 -213 1
-223 -2 -5 -1 -14 0 -20 2 -11 1 -537 -1 -545 -1 -3 -1 -8 0 -12 2 -13 3 -212
1 -223 -1 -5 -2 -23 -1 -40 2 -69 2 -271 0 -280 -1 -5 -1 -32 0 -59 1 -28 3
-91 5 -140 2 -50 8 -107 13 -128 8 -28 7 -40 -3 -52 -8 -9 -9 -11 -2 -6 18 15
31 12 24 -5 -3 -8 -1 -15 5 -15 6 0 8 -7 5 -16 -4 -10 -2 -13 6 -8 7 5 9 0 6
-14 -4 -12 -2 -19 3 -16 5 3 12 -3 16 -13 3 -10 13 -26 21 -35 8 -10 12 -18 8
-18 -4 0 6 -12 23 -26 17 -14 31 -30 31 -36 0 -11 26 -39 32 -33 2 2 4 -5 5
-16 1 -12 -3 -17 -9 -13 -7 4 -8 2 -4 -5 6 -9 11 -9 22 0 11 9 14 9 14 0 0 -7
4 -10 9 -7 5 3 12 -1 15 -10 4 -10 2 -13 -7 -8 -8 6 -8 3 1 -9 8 -9 19 -15 25
-14 7 1 11 -4 10 -10 -2 -7 2 -13 8 -13 6 0 23 -13 39 -30 15 -16 30 -26 34
-23 3 3 6 1 6 -5 0 -7 6 -11 13 -9 6 1 11 -4 9 -11 -1 -7 11 -15 28 -18 16 -4
35 -14 42 -23 12 -15 11 -15 -7 -1 -18 14 -19 13 -8 -1 7 -9 11 -19 8 -23 -3
-3 3 0 12 8 14 13 20 13 43 1 15 -8 29 -13 31 -12 2 1 -2 -3 -9 -9 -10 -10 -8
-12 12 -10 13 0 22 4 20 7 -2 3 8 4 21 1 14 -2 25 -8 25 -12 0 -4 7 -11 16
-14 8 -3 13 -2 10 3 -3 5 1 12 10 15 8 3 13 2 11 -2 -3 -4 2 -14 11 -22 14
-13 15 -13 10 1 -4 11 5 14 47 15 37 0 51 -4 48 -12 -2 -7 1 -15 7 -19 6 -3
10 -3 9 2 -5 28 32 45 47 21 4 -7 2 -8 -4 -4 -7 4 -12 2 -12 -3 0 -6 5 -11 11
-11 5 0 7 -6 3 -13 -4 -7 -3 -9 2 -4 5 5 10 13 10 18 1 5 2 12 3 17 1 10 173
9 189 -1 6 -5 12 -4 12 1 0 12 56 10 67 -2 5 -5 2 -6 -6 -1 -10 6 -12 4 -6 -5
7 -11 10 -10 19 1 14 18 43 23 52 8 4 -7 3 -9 -4 -5 -6 3 -14 1 -18 -5 -4 -7
-3 -9 4 -5 5 3 13 0 15 -6 4 -10 6 -10 6 0 1 7 5 10 11 7 5 -3 7 0 4 8 -7 20
34 17 46 -3 8 -13 10 -13 10 1 0 21 37 20 50 -1 9 -13 10 -13 10 1 0 9 7 16
15 16 8 0 12 -4 10 -8 -3 -4 2 -9 10 -12 9 -4 12 -1 9 7 -7 19 34 15 46 -4 8
-13 10 -13 10 1 0 21 37 20 50 -1 8 -13 10 -12 10 4 0 16 2 17 17 5 9 -8 14
-9 11 -4 -4 6 11 10 37 11 30 0 42 -3 38 -12 -2 -7 1 -15 7 -19 6 -3 10 -3 9
2 -5 28 32 45 47 21 4 -7 2 -8 -4 -4 -7 4 -12 2 -12 -3 0 -6 5 -11 11 -11 5 0
7 -6 3 -12 -4 -8 -3 -10 2 -5 5 5 10 13 10 18 1 5 2 12 3 17 0 4 57 7 125 7
90 0 122 -3 119 -11 -2 -7 1 -15 7 -19 6 -3 10 -3 9 2 -5 28 32 45 47 21 4 -7
2 -8 -4 -4 -7 4 -12 2 -12 -3 0 -6 5 -11 11 -11 5 0 7 -6 3 -12 -4 -8 -3 -10
2 -5 5 5 10 13 10 18 1 5 2 13 3 17 2 12 40 12 47 0 4 -6 3 -8 -3 -5 -6 4 -13
1 -16 -6 -3 -7 3 -13 13 -13 10 0 18 3 18 6 -2 27 2 32 19 19 9 -8 14 -9 11
-4 -4 6 11 10 37 11 24 0 42 -3 39 -8 -3 -5 -8 -6 -12 -4 -4 2 -16 -2 -27 -10
-10 -8 -14 -14 -8 -14 7 0 14 4 17 9 4 5 17 8 30 7 16 -2 23 1 20 9 -7 18 35
13 46 -5 8 -13 10 -13 10 1 0 21 37 20 50 -1 9 -13 10 -13 10 1 0 9 7 16 15
16 8 0 12 -4 10 -8 -3 -4 2 -9 10 -12 9 -4 12 -1 9 7 -7 19 34 15 46 -4 8 -13
10 -13 10 1 0 21 37 20 50 -1 8 -13 10 -12 10 4 0 15 3 16 15 6 9 -7 18 -10
22 -6 3 3 0 6 -7 6 -7 0 -10 3 -7 6 4 4 13 1 22 -6 8 -7 15 -9 15 -4 0 5 47 9
104 9 74 0 102 -3 99 -11 -2 -7 1 -15 7 -19 6 -3 10 -3 9 2 -5 28 32 45 47 21
4 -7 2 -8 -4 -4 -7 4 -12 2 -12 -3 0 -6 5 -11 11 -11 5 0 7 -6 3 -13 -4 -7 -3
-9 2 -4 5 5 10 13 10 18 1 5 2 12 3 17 1 10 173 9 189 -1 6 -5 12 -4 12 1 0
12 56 10 67 -2 5 -5 2 -6 -6 -1 -10 6 -12 4 -6 -5 7 -11 10 -10 19 1 14 18 43
23 52 8 4 -7 3 -9 -4 -5 -6 3 -14 1 -18 -5 -4 -7 -3 -9 4 -5 5 3 13 0 15 -6 4
-10 6 -10 6 0 1 7 5 10 11 7 5 -3 7 0 4 8 -7 20 34 17 46 -3 8 -13 10 -13 10
1 0 21 37 20 50 -1 9 -13 10 -13 10 1 0 9 7 16 15 16 8 0 12 -4 10 -8 -3 -4 2
-9 10 -12 9 -4 12 -1 9 7 -7 19 34 15 46 -4 8 -13 10 -13 10 1 0 21 37 20 50
-1 8 -13 10 -12 10 4 0 16 2 17 17 5 9 -8 14 -9 11 -4 -4 6 11 10 37 11 30 0
42 -3 38 -12 -2 -7 1 -15 7 -19 6 -3 10 -3 9 2 -5 28 32 45 47 21 4 -7 2 -8
-4 -4 -7 4 -12 2 -12 -3 0 -6 5 -11 11 -11 5 0 7 -6 3 -12 -4 -8 -3 -10 2 -5
5 5 10 13 10 18 1 5 2 15 3 22 1 7 8 4 18 -8 14 -18 15 -18 9 -2 -4 13 -2 17
6 14 7 -2 12 -11 10 -18 -1 -9 3 -7 12 4 9 12 16 14 21 8 3 -6 12 -11 18 -11
7 0 6 4 -3 11 -12 8 -10 10 9 5 14 -3 31 0 39 7 13 10 14 8 7 -13 -7 -23 -7
-23 19 5 15 17 25 24 21 17 -3 -6 -2 -12 4 -12 5 0 11 6 14 13 3 9 8 9 21 -2
14 -12 16 -12 10 3 -4 9 -3 16 2 15 22 -4 35 2 28 13 -5 7 -3 8 6 3 7 -4 16
-2 21 6 6 10 9 11 9 2 0 -7 5 -13 11 -13 5 0 7 5 3 12 -5 7 -2 9 9 5 12 -4 14
-2 10 10 -4 10 -2 14 3 10 6 -3 22 5 37 18 25 24 47 19 31 -7 -4 -7 -3 -8 5
-4 7 5 9 17 5 29 -3 12 -3 19 1 15 4 -4 19 6 34 21 15 16 35 26 48 25 12 0 20
2 17 7 -2 4 -12 5 -21 2 -11 -4 -14 -2 -11 8 3 8 11 13 17 11 7 -1 10 1 8 5
-3 5 1 17 9 27 12 17 16 17 31 5 16 -13 17 -12 5 3 -10 13 -10 17 0 21 9 4 9
6 -2 6 -11 1 -8 8 10 22 14 11 19 18 13 14 -9 -4 -11 -1 -7 9 3 9 11 16 17 16
6 0 7 3 4 6 -7 7 22 64 38 76 6 5 4 8 -4 8 -11 0 -9 4 5 15 10 8 15 15 9 15
-5 0 -3 5 5 10 15 9 16 13 19 46 0 8 5 13 10 10 4 -3 7 5 6 18 -2 14 3 36 11
50 8 16 9 24 2 20 -7 -5 -8 -3 -2 7 5 8 9 35 10 60 1 26 4 52 8 58 4 6 4 11
-1 11 -10 0 -9 132 1 149 4 6 4 11 -1 11 -4 0 -7 21 -6 47 1 27 2 59 3 73 0
14 0 72 0 129 -1 57 1 106 4 108 3 3 1 14 -4 24 -7 11 -7 20 0 24 5 3 7 11 5
18 -9 23 -11 117 -2 117 4 0 5 5 1 12 -10 15 -10 61 0 76 4 7 4 12 -1 12 -4 0
-7 21 -6 47 1 27 2 59 3 73 0 14 0 72 0 129 -1 57 1 106 4 108 3 3 1 14 -4 24
-7 11 -7 20 0 24 5 3 7 11 5 18 -9 23 -11 117 -2 117 4 0 5 5 1 12 -10 15 -10
61 0 76 4 7 4 12 -1 12 -4 0 -7 21 -6 47 1 27 2 59 3 73 0 14 0 72 0 129 -1
57 1 106 4 108 3 3 1 14 -4 24 -7 11 -7 20 0 24 5 3 7 11 5 18 -9 23 -11 117
-2 117 4 0 5 5 1 12 -10 15 -10 61 0 76 4 7 4 12 -1 12 -4 0 -7 21 -6 47 1 27
2 59 3 73 0 14 0 72 0 129 -1 57 1 106 4 108 3 3 1 14 -4 24 -7 11 -7 20 0 24
5 3 7 11 5 18 -9 23 -11 117 -2 117 4 0 5 5 1 12 -10 15 -10 61 0 76 4 7 4 12
-1 12 -4 0 -8 60 -7 133 0 72 -3 137 -8 143 -4 6 -9 19 -12 30 -2 10 -7 29
-11 41 -4 12 -6 24 -4 26 2 2 -4 12 -14 21 -10 10 -21 32 -24 48 -3 16 -8 26
-11 24 -5 -6 -61 74 -60 88 0 5 -4 12 -9 15 -5 3 -19 23 -32 44 -12 20 -32 43
-43 51 -13 9 -17 19 -12 28 4 7 4 10 0 6 -5 -4 -31 12 -60 36 -58 47 -156 97
-231 116 -40 11 -346 14 -1571 15 -1421 1 -1527 0 -1604 -17z"/>
<path d="M4635 849 c-4 -6 -5 -12 -2 -15 2 -3 7 2 10 11 7 17 1 20 -8 4z"/>
<path d="M456 802 c-3 -5 1 -9 9 -9 8 0 12 4 9 9 -3 4 -7 8 -9 8 -2 0 -6 -4
-9 -8z"/>
<path d="M561 743 c7 -12 15 -20 18 -17 3 2 -3 12 -13 22 -17 16 -18 16 -5 -5z"/>
<path d="M567 699 c7 -7 15 -10 18 -7 3 3 -2 9 -12 12 -14 6 -15 5 -6 -5z"/>
<path d="M4351 484 c0 -11 3 -14 6 -6 3 7 2 16 -1 19 -3 4 -6 -2 -5 -13z"/>
<path d="M903 446 c0 -7 6 -13 14 -13 7 0 13 4 13 8 0 4 -6 9 -13 12 -8 3 -14
0 -14 -7z"/>
<path d="M4278 443 c7 -3 16 -2 19 1 4 3 -2 6 -13 5 -11 0 -14 -3 -6 -6z"/>
<path d="M1136 402 c-3 -5 1 -9 9 -9 8 0 12 4 9 9 -3 4 -7 8 -9 8 -2 0 -6 -4
-9 -8z"/>
<path d="M1430 401 c0 -6 4 -12 8 -15 5 -3 9 1 9 9 0 8 -4 15 -9 15 -4 0 -8
-4 -8 -9z"/>
<path d="M1486 402 c-3 -5 1 -9 9 -9 8 0 12 4 9 9 -3 4 -7 8 -9 8 -2 0 -6 -4
-9 -8z"/>
<path d="M1690 400 c-11 -7 -11 -10 -2 -10 8 0 10 -5 6 -12 -4 -7 -3 -9 1 -5
7 6 17 37 12 37 -1 0 -9 -5 -17 -10z"/>
<path d="M1850 400 c-11 -7 -11 -10 -2 -10 8 0 10 -5 6 -12 -4 -7 -3 -9 1 -5
7 6 17 37 12 37 -1 0 -9 -5 -17 -10z"/>
<path d="M1936 402 c-3 -5 1 -9 9 -9 8 0 12 4 9 9 -3 4 -7 8 -9 8 -2 0 -6 -4
-9 -8z"/>
<path d="M2090 390 c6 -11 13 -20 16 -20 2 0 0 9 -6 20 -6 11 -13 20 -16 20
-2 0 0 -9 6 -20z"/>
<path d="M2256 402 c-3 -5 1 -9 9 -9 8 0 12 4 9 9 -3 4 -7 8 -9 8 -2 0 -6 -4
-9 -8z"/>
<path d="M2650 400 c-11 -7 -11 -10 -2 -10 8 0 10 -5 6 -12 -4 -7 -3 -9 1 -5
7 6 17 37 12 37 -1 0 -9 -5 -17 -10z"/>
<path d="M2810 400 c-11 -7 -11 -10 -2 -10 8 0 10 -5 6 -12 -4 -7 -3 -9 1 -5
7 6 17 37 12 37 -1 0 -9 -5 -17 -10z"/>
<path d="M2945 399 c-3 -4 2 -6 10 -5 21 3 28 13 10 13 -9 0 -18 -4 -20 -8z"/>
<path d="M3015 400 c-3 -5 -1 -10 4 -10 6 0 11 5 11 10 0 6 -2 10 -4 10 -3 0
-8 -4 -11 -10z"/>
<path d="M3056 402 c-3 -5 1 -9 9 -9 8 0 12 4 9 9 -3 4 -7 8 -9 8 -2 0 -6 -4
-9 -8z"/>
<path d="M3350 401 c0 -6 4 -12 8 -15 5 -3 9 1 9 9 0 8 -4 15 -9 15 -4 0 -8
-4 -8 -9z"/>
<path d="M3406 402 c-3 -5 1 -9 9 -9 8 0 12 4 9 9 -3 4 -7 8 -9 8 -2 0 -6 -4
-9 -8z"/>
<path d="M3610 400 c-11 -7 -11 -10 -2 -10 8 0 10 -5 6 -12 -4 -7 -3 -9 1 -5
7 6 17 37 12 37 -1 0 -9 -5 -17 -10z"/>
<path d="M3770 400 c-11 -7 -11 -10 -2 -10 8 0 10 -5 6 -12 -4 -7 -3 -9 1 -5
7 6 17 37 12 37 -1 0 -9 -5 -17 -10z"/>
<path d="M3856 402 c-3 -5 1 -9 9 -9 8 0 12 4 9 9 -3 4 -7 8 -9 8 -2 0 -6 -4
-9 -8z"/>
<path d="M4161 401 c-10 -7 -7 -9 12 -8 14 1 23 5 20 10 -6 9 -15 9 -32 -2z"/>
<path d="M1350 389 c0 -5 5 -7 10 -4 6 3 10 8 10 11 0 2 -4 4 -10 4 -5 0 -10
-5 -10 -11z"/>
<path d="M2150 389 c0 -5 5 -7 10 -4 6 3 10 8 10 11 0 2 -4 4 -10 4 -5 0 -10
-5 -10 -11z"/>
<path d="M3270 389 c0 -5 5 -7 10 -4 6 3 10 8 10 11 0 2 -4 4 -10 4 -5 0 -10
-5 -10 -11z"/>
<path d="M1300 380 c-9 -6 -10 -10 -3 -10 6 0 15 5 18 10 8 12 4 12 -15 0z"/>
<path d="M1540 380 c-9 -6 -10 -10 -3 -10 6 0 15 5 18 10 8 12 4 12 -15 0z"/>
<path d="M2870 379 c0 -5 5 -7 10 -4 6 3 10 8 10 11 0 2 -4 4 -10 4 -5 0 -10
-5 -10 -11z"/>
<path d="M3220 380 c-9 -6 -10 -10 -3 -10 6 0 15 5 18 10 8 12 4 12 -15 0z"/>
<path d="M3460 380 c-9 -6 -10 -10 -3 -10 6 0 15 5 18 10 8 12 4 12 -15 0z"/>
<path d="M1413 365 c0 -8 4 -12 9 -9 5 3 6 10 3 15 -9 13 -12 11 -12 -6z"/>
<path d="M3333 365 c0 -8 4 -12 9 -9 5 3 6 10 3 15 -9 13 -12 11 -12 -6z"/>
</g>
</svg>
